<svg id="图层_1" data-name="图层 1" xmlns="http://www.w3.org/2000/svg" viewBox="0 0 14 14"><defs><style>.cls-1{fill:#7d7f7e;}</style></defs><title>C</title><path class="cls-1" d="M13.73,12.41,8.32,7l5.41-5.41A1,1,0,0,0,14,.93a1,1,0,0,0-.27-.66A1,1,0,0,0,13.07,0a.94.94,0,0,0-.66.27L7,5.68,1.59.27A1,1,0,0,0,.93,0,1,1,0,0,0,.27.27,1,1,0,0,0,0,.93a1,1,0,0,0,.27.66L5.68,7,.27,12.41a.94.94,0,0,0,0,1.32A1,1,0,0,0,.93,14a1,1,0,0,0,.66-.27L7,8.32l5.41,5.41a.94.94,0,0,0,1.32,0A.94.94,0,0,0,13.73,12.41Z" transform="translate(0 0)"/></svg>